<?xml version="1.0" standalone="no"?><!DOCTYPE svg PUBLIC "-//W3C//DTD SVG 1.1//EN" "http://www.w3.org/Graphics/SVG/1.1/DTD/svg11.dtd"><svg t="1521554764555" class="icon" style="" viewBox="0 0 1024 1024" version="1.1" xmlns="http://www.w3.org/2000/svg" p-id="2735" xmlns:xlink="http://www.w3.org/1999/xlink" width="200" height="200"><defs><style type="text/css"></style></defs><path d="M64 192v128h64V192c0-38.4 25.6-64 64-64h128V64H192c-70.4 0-128 57.6-128 128zM832 64h-128v64h128c38.4 0 64 25.6 64 64v128h64V192c0-70.4-57.6-128-128-128zM128 832v-128H64v128c0 70.4 57.6 128 128 128h128v-64H192c-38.4 0-64-25.6-64-64zM896 832c0 38.4-25.6 64-64 64h-128v64h128c70.4 0 128-57.6 128-128v-128h-64v128z" fill="#2c2c2c" p-id="2736"></path><path d="M96 320m-32 0a32 32 0 1 0 64 0 32 32 0 1 0-64 0Z" fill="#2c2c2c" p-id="2737"></path><path d="M96 512m-32 0a32 32 0 1 0 64 0 32 32 0 1 0-64 0Z" fill="#2c2c2c" p-id="2738"></path><path d="M928 512m-32 0a32 32 0 1 0 64 0 32 32 0 1 0-64 0Z" fill="#2c2c2c" p-id="2739"></path><path d="M96 704m-32 0a32 32 0 1 0 64 0 32 32 0 1 0-64 0Z" fill="#2c2c2c" p-id="2740"></path><path d="M928 320m-32 0a32 32 0 1 0 64 0 32 32 0 1 0-64 0Z" fill="#2c2c2c" p-id="2741"></path><path d="M320 96m-32 0a32 32 0 1 0 64 0 32 32 0 1 0-64 0Z" fill="#2c2c2c" p-id="2742"></path><path d="M704 96m-32 0a32 32 0 1 0 64 0 32 32 0 1 0-64 0Z" fill="#2c2c2c" p-id="2743"></path><path d="M320 928m-32 0a32 32 0 1 0 64 0 32 32 0 1 0-64 0Z" fill="#2c2c2c" p-id="2744"></path><path d="M704 928m-32 0a32 32 0 1 0 64 0 32 32 0 1 0-64 0Z" fill="#2c2c2c" p-id="2745"></path><path d="M928 704m-32 0a32 32 0 1 0 64 0 32 32 0 1 0-64 0Z" fill="#2c2c2c" p-id="2746"></path><path d="M96 480h832v64h-832z" fill="#2c2c2c" p-id="2747"></path></svg>