<?xml version="1.0" standalone="no"?><!DOCTYPE svg PUBLIC "-//W3C//DTD SVG 1.1//EN" "http://www.w3.org/Graphics/SVG/1.1/DTD/svg11.dtd"><svg t="1519657770316" class="icon" style="" viewBox="0 0 1024 1024" version="1.1" xmlns="http://www.w3.org/2000/svg" p-id="2449" xmlns:xlink="http://www.w3.org/1999/xlink" width="200" height="200"><defs><style type="text/css"></style></defs><path d="M602.997965 0.072781l10.198989 63.250387-192.215462 30.99433-10.198989-63.250387 192.215462-30.99433Z" p-id="2450" fill="#ffffff"></path><path d="M800.256 443.456C798.784 286.464 670.016 159.232 512 159.232c-158.08 0-286.784 127.424-288.256 284.544l-69.824 420.032 716.16 0L800.256 443.456zM229.504 799.808 287.36 451.776l0.448-5.248c0-123.072 100.608-223.232 224.192-223.232 123.584 0 224.192 99.968 224.192 222.912l58.304 353.6L229.504 799.808z" p-id="2451" fill="#ffffff"></path><path d="M351.872 446.848 320.128 699.52l63.488 8.384 32-242.56 0.256-18.56c0-52.608 43.072-95.424 96.064-95.424L511.936 287.36C423.68 287.36 351.872 358.848 351.872 446.848z" p-id="2452" fill="#ffffff"></path><path d="M512 959.936c-17.664 0-32.064-14.336-32.064-32L415.936 927.936C415.936 980.928 459.008 1024 512 1024c52.992 0 96.064-43.072 96.064-96.064L544 927.936C544 945.6 529.664 959.936 512 959.936z" p-id="2453" fill="#ffffff"></path></svg>